<svg width="230" height="59" viewBox="0 0 230 59" fill="none" xmlns="http://www.w3.org/2000/svg">
<path d="M228 15.69V44.41L214.68 57H14.95L2 44.76V15.32L14.59 2H215.04L227.63 15.32V15.25L228 15.69Z" fill="url(#paint0_linear_50_236)" stroke="white" stroke-width="3" stroke-miterlimit="10"/>
<path d="M213.91 55.3201H15.61L3.17999 44.4301L213.91 55.3201Z" fill="#D71D6B"/>
<path opacity="0.4" d="M213.91 3.57007H15.1L225.99 16.6801L213.91 3.57007Z" fill="#D2DAFF"/>
<path d="M220.89 18.95V40.88L208.4 50.5H21.11L8.97 41.15V18.67L20.78 8.5H208.73L220.54 18.67V18.62L220.89 18.95Z" stroke="#3CFF8A" stroke-width="2" stroke-miterlimit="10"/>
<mask id="path-5-outside-1_50_236" maskUnits="userSpaceOnUse" x="77" y="22" width="74" height="20" fill="black">
<rect fill="white" x="77" y="22" width="74" height="20"/>
<path d="M80.0918 41C79.5358 41 79.1165 40.8496 78.834 40.5488C78.5514 40.2389 78.4329 39.806 78.4785 39.25L79.3672 27.7246C79.5039 25.8835 79.9915 24.5618 80.8301 23.7598C81.6777 22.9486 82.9447 22.543 84.6309 22.543C86.2897 22.543 87.502 22.9349 88.2676 23.7188C89.0423 24.5026 89.5664 25.8379 89.8398 27.7246L90.373 31.3066C90.4186 31.571 90.528 31.7031 90.7012 31.7031C90.8835 31.7031 90.9974 31.571 91.043 31.3066L91.5762 27.7246C91.8587 25.8379 92.3828 24.5026 93.1484 23.7188C93.9141 22.9349 95.1263 22.543 96.7852 22.543C98.4714 22.543 99.7337 22.9486 100.572 23.7598C101.42 24.571 101.912 25.8926 102.049 27.7246L102.951 39.25C102.997 39.806 102.878 40.2389 102.596 40.5488C102.313 40.8496 101.894 41 101.338 41H97.9336C96.8307 41 96.2656 40.4486 96.2383 39.3457L96.0332 31.0332C96.0332 30.7507 95.9102 30.6094 95.6641 30.6094C95.4635 30.6094 95.3451 30.7507 95.3086 31.0332L93.9277 38.8125C93.791 39.5964 93.472 40.1569 92.9707 40.4941C92.4785 40.8314 91.722 41 90.7012 41C89.6895 41 88.9375 40.8314 88.4453 40.4941C87.9531 40.1569 87.6341 39.5964 87.4883 38.8125L86.1211 31.0332C86.0755 30.7507 85.9525 30.6094 85.752 30.6094C85.5059 30.6094 85.3874 30.7507 85.3965 31.0332L85.1777 39.3457C85.1504 40.4486 84.5853 41 83.4824 41H80.0918ZM106.287 41C105.749 41 105.335 40.8587 105.043 40.5762C104.751 40.2845 104.605 39.8652 104.605 39.3184V24.4844C104.605 23.9466 104.747 23.5319 105.029 23.2402C105.321 22.9486 105.74 22.8027 106.287 22.8027H109.979C110.516 22.8027 110.931 22.9486 111.223 23.2402C111.514 23.5228 111.66 23.9375 111.66 24.4844V39.3184C111.66 39.8561 111.514 40.2708 111.223 40.5625C110.94 40.8542 110.525 41 109.979 41H106.287ZM115.447 41C114.91 41 114.495 40.8587 114.203 40.5762C113.911 40.2845 113.766 39.8652 113.766 39.3184V26.166C113.766 25.5462 113.816 25.0358 113.916 24.6348C114.016 24.2337 114.199 23.8919 114.463 23.6094C114.736 23.3177 115.11 23.1126 115.584 22.9941C116.058 22.8665 116.664 22.8027 117.402 22.8027C118.505 22.8027 119.389 22.9987 120.055 23.3906C120.729 23.7826 121.431 24.5664 122.16 25.7422L125.414 31.0332C125.496 31.1426 125.578 31.1973 125.66 31.1973C125.77 31.1973 125.824 31.0788 125.824 30.8418L125.633 24.5117C125.615 23.9648 125.747 23.5456 126.029 23.2539C126.321 22.9531 126.74 22.8027 127.287 22.8027H130.445C130.983 22.8027 131.398 22.9486 131.689 23.2402C131.981 23.5228 132.127 23.9375 132.127 24.4844V37.6367C132.127 38.2565 132.077 38.7669 131.977 39.168C131.876 39.569 131.689 39.9108 131.416 40.1934C131.152 40.4759 130.783 40.681 130.309 40.8086C129.835 40.9362 129.229 41 128.49 41C127.387 41 126.499 40.804 125.824 40.4121C125.159 40.0202 124.462 39.2363 123.732 38.0605L120.479 32.7695C120.396 32.6602 120.314 32.6055 120.232 32.6055C120.123 32.6055 120.064 32.724 120.055 32.9609L120.26 39.291C120.278 39.8379 120.141 40.2617 119.85 40.5625C119.558 40.8542 119.143 41 118.605 41H115.447ZM148.191 22.8027C148.729 22.8027 149.144 22.9486 149.436 23.2402C149.727 23.5228 149.873 23.9375 149.873 24.4844V26.918C149.873 27.4557 149.727 27.8704 149.436 28.1621C149.144 28.4538 148.729 28.5996 148.191 28.5996H145.115V39.3184C145.115 39.8561 144.969 40.2708 144.678 40.5625C144.386 40.8542 143.971 41 143.434 41H139.729C139.191 41 138.776 40.8587 138.484 40.5762C138.202 40.2845 138.061 39.8652 138.061 39.3184V28.5996H134.971C134.433 28.5996 134.018 28.4538 133.727 28.1621C133.435 27.8704 133.289 27.4557 133.289 26.918V24.4844C133.289 23.9466 133.435 23.5319 133.727 23.2402C134.018 22.9486 134.433 22.8027 134.971 22.8027H148.191Z"/>
</mask>
<path d="M80.0918 41C79.5358 41 79.1165 40.8496 78.834 40.5488C78.5514 40.2389 78.4329 39.806 78.4785 39.25L79.3672 27.7246C79.5039 25.8835 79.9915 24.5618 80.8301 23.7598C81.6777 22.9486 82.9447 22.543 84.6309 22.543C86.2897 22.543 87.502 22.9349 88.2676 23.7188C89.0423 24.5026 89.5664 25.8379 89.8398 27.7246L90.373 31.3066C90.4186 31.571 90.528 31.7031 90.7012 31.7031C90.8835 31.7031 90.9974 31.571 91.043 31.3066L91.5762 27.7246C91.8587 25.8379 92.3828 24.5026 93.1484 23.7188C93.9141 22.9349 95.1263 22.543 96.7852 22.543C98.4714 22.543 99.7337 22.9486 100.572 23.7598C101.42 24.571 101.912 25.8926 102.049 27.7246L102.951 39.25C102.997 39.806 102.878 40.2389 102.596 40.5488C102.313 40.8496 101.894 41 101.338 41H97.9336C96.8307 41 96.2656 40.4486 96.2383 39.3457L96.0332 31.0332C96.0332 30.7507 95.9102 30.6094 95.6641 30.6094C95.4635 30.6094 95.3451 30.7507 95.3086 31.0332L93.9277 38.8125C93.791 39.5964 93.472 40.1569 92.9707 40.4941C92.4785 40.8314 91.722 41 90.7012 41C89.6895 41 88.9375 40.8314 88.4453 40.4941C87.9531 40.1569 87.6341 39.5964 87.4883 38.8125L86.1211 31.0332C86.0755 30.7507 85.9525 30.6094 85.752 30.6094C85.5059 30.6094 85.3874 30.7507 85.3965 31.0332L85.1777 39.3457C85.1504 40.4486 84.5853 41 83.4824 41H80.0918ZM106.287 41C105.749 41 105.335 40.8587 105.043 40.5762C104.751 40.2845 104.605 39.8652 104.605 39.3184V24.4844C104.605 23.9466 104.747 23.5319 105.029 23.2402C105.321 22.9486 105.74 22.8027 106.287 22.8027H109.979C110.516 22.8027 110.931 22.9486 111.223 23.2402C111.514 23.5228 111.66 23.9375 111.66 24.4844V39.3184C111.66 39.8561 111.514 40.2708 111.223 40.5625C110.94 40.8542 110.525 41 109.979 41H106.287ZM115.447 41C114.91 41 114.495 40.8587 114.203 40.5762C113.911 40.2845 113.766 39.8652 113.766 39.3184V26.166C113.766 25.5462 113.816 25.0358 113.916 24.6348C114.016 24.2337 114.199 23.8919 114.463 23.6094C114.736 23.3177 115.11 23.1126 115.584 22.9941C116.058 22.8665 116.664 22.8027 117.402 22.8027C118.505 22.8027 119.389 22.9987 120.055 23.3906C120.729 23.7826 121.431 24.5664 122.16 25.7422L125.414 31.0332C125.496 31.1426 125.578 31.1973 125.66 31.1973C125.77 31.1973 125.824 31.0788 125.824 30.8418L125.633 24.5117C125.615 23.9648 125.747 23.5456 126.029 23.2539C126.321 22.9531 126.74 22.8027 127.287 22.8027H130.445C130.983 22.8027 131.398 22.9486 131.689 23.2402C131.981 23.5228 132.127 23.9375 132.127 24.4844V37.6367C132.127 38.2565 132.077 38.7669 131.977 39.168C131.876 39.569 131.689 39.9108 131.416 40.1934C131.152 40.4759 130.783 40.681 130.309 40.8086C129.835 40.9362 129.229 41 128.49 41C127.387 41 126.499 40.804 125.824 40.4121C125.159 40.0202 124.462 39.2363 123.732 38.0605L120.479 32.7695C120.396 32.6602 120.314 32.6055 120.232 32.6055C120.123 32.6055 120.064 32.724 120.055 32.9609L120.26 39.291C120.278 39.8379 120.141 40.2617 119.85 40.5625C119.558 40.8542 119.143 41 118.605 41H115.447ZM148.191 22.8027C148.729 22.8027 149.144 22.9486 149.436 23.2402C149.727 23.5228 149.873 23.9375 149.873 24.4844V26.918C149.873 27.4557 149.727 27.8704 149.436 28.1621C149.144 28.4538 148.729 28.5996 148.191 28.5996H145.115V39.3184C145.115 39.8561 144.969 40.2708 144.678 40.5625C144.386 40.8542 143.971 41 143.434 41H139.729C139.191 41 138.776 40.8587 138.484 40.5762C138.202 40.2845 138.061 39.8652 138.061 39.3184V28.5996H134.971C134.433 28.5996 134.018 28.4538 133.727 28.1621C133.435 27.8704 133.289 27.4557 133.289 26.918V24.4844C133.289 23.9466 133.435 23.5319 133.727 23.2402C134.018 22.9486 134.433 22.8027 134.971 22.8027H148.191Z" fill="#61FF50"/>
<path d="M78.834 40.5488L78.4645 40.8857L78.4696 40.8912L78.834 40.5488ZM78.4785 39.25L78.9769 39.2908L78.977 39.2884L78.4785 39.25ZM79.3672 27.7246L79.8657 27.763L79.8658 27.7616L79.3672 27.7246ZM80.8301 23.7598L81.1757 24.1211L81.1758 24.121L80.8301 23.7598ZM88.2676 23.7188L87.9099 24.0681L87.912 24.0702L88.2676 23.7188ZM89.8398 27.7246L89.345 27.7963L89.3453 27.7982L89.8398 27.7246ZM90.373 31.3066L89.8784 31.3803L89.8803 31.3916L90.373 31.3066ZM91.043 31.3066L91.5358 31.3916L91.5375 31.3803L91.043 31.3066ZM91.5762 27.7246L91.0817 27.6506L91.0816 27.651L91.5762 27.7246ZM100.572 23.7598L100.225 24.1191L100.227 24.121L100.572 23.7598ZM102.049 27.7246L101.55 27.7618L101.55 27.7636L102.049 27.7246ZM102.951 39.25L102.453 39.289L102.453 39.2908L102.951 39.25ZM102.596 40.5488L102.96 40.8912L102.965 40.8857L102.596 40.5488ZM96.2383 39.3457L95.7384 39.358L95.7384 39.3581L96.2383 39.3457ZM96.0332 31.0332H95.5331L95.5334 31.0455L96.0332 31.0332ZM95.3086 31.0332L95.8009 31.1206L95.803 31.1089L95.8045 31.0972L95.3086 31.0332ZM93.9277 38.8125L93.4354 38.7251L93.4352 38.7266L93.9277 38.8125ZM92.9707 40.4941L92.6916 40.0793L92.6881 40.0817L92.9707 40.4941ZM87.4883 38.8125L86.9958 38.8991L86.9967 38.904L87.4883 38.8125ZM86.1211 31.0332L85.6274 31.1128L85.6286 31.1198L86.1211 31.0332ZM85.3965 31.0332L85.8963 31.0464L85.8967 31.0317L85.8962 31.0171L85.3965 31.0332ZM85.1777 39.3457L84.6779 39.3326L84.6779 39.3333L85.1777 39.3457ZM80.0918 40.5C79.624 40.5 79.357 40.3754 79.1984 40.2065L78.4696 40.8912C78.876 41.3239 79.4476 41.5 80.0918 41.5V40.5ZM79.2035 40.212C79.0425 40.0354 78.9387 39.7563 78.9768 39.2908L77.9802 39.2092C77.9272 39.8557 78.0604 40.4425 78.4645 40.8857L79.2035 40.212ZM78.977 39.2884L79.8657 27.763L78.8687 27.6862L77.98 39.2116L78.977 39.2884ZM79.8658 27.7616C79.9985 25.9745 80.4664 24.7995 81.1757 24.1211L80.4845 23.3984C79.5167 24.3242 79.0093 25.7924 78.8686 27.6876L79.8658 27.7616ZM81.1758 24.121C81.8964 23.4313 83.0173 23.043 84.6309 23.043V22.043C82.8721 22.043 81.459 22.4658 80.4844 23.3985L81.1758 24.121ZM84.6309 23.043C86.2234 23.043 87.2773 23.4204 87.9099 24.0681L88.6253 23.3694C87.7266 22.4493 86.356 22.043 84.6309 22.043V23.043ZM87.912 24.0702C88.5741 24.7402 89.0769 25.9464 89.345 27.7963L90.3347 27.6529C90.0559 25.7294 89.5105 24.265 88.6232 23.3673L87.912 24.0702ZM89.3453 27.7982L89.8785 31.3803L90.8676 31.233L90.3344 27.651L89.3453 27.7982ZM89.8803 31.3916C89.9103 31.5656 89.9709 31.7618 90.1041 31.9228C90.2548 32.1049 90.4672 32.2031 90.7012 32.2031V31.2031C90.7229 31.2031 90.7571 31.2077 90.7951 31.2254C90.8332 31.2433 90.8594 31.267 90.8745 31.2852C90.8881 31.3017 90.8893 31.3095 90.8849 31.2981C90.8805 31.2868 90.8729 31.2627 90.8658 31.2217L89.8803 31.3916ZM90.7012 32.2031C90.9304 32.2031 91.1454 32.1122 91.302 31.9305C91.4419 31.7683 91.5051 31.569 91.5357 31.3916L90.5502 31.2217C90.5434 31.2614 90.536 31.2838 90.5321 31.2935C90.5282 31.3031 90.5302 31.2943 90.5446 31.2775C90.5605 31.2591 90.5862 31.2374 90.6214 31.2217C90.6559 31.2063 90.6853 31.2031 90.7012 31.2031V32.2031ZM91.5375 31.3803L92.0707 27.7982L91.0816 27.651L90.5484 31.233L91.5375 31.3803ZM92.0707 27.7987C92.3479 25.9474 92.8507 24.7391 93.5061 24.0681L92.7907 23.3694C91.9149 24.2661 91.3695 25.7284 91.0817 27.6506L92.0707 27.7987ZM93.5061 24.0681C94.1387 23.4204 95.1926 23.043 96.7852 23.043V22.043C95.06 22.043 93.6894 22.4493 92.7907 23.3694L93.5061 24.0681ZM96.7852 23.043C98.3993 23.043 99.5138 23.4315 100.225 24.1191L100.92 23.4004C99.9536 22.4656 98.5435 22.043 96.7852 22.043V23.043ZM100.227 24.121C100.946 24.8097 101.418 25.9863 101.55 27.7618L102.547 27.6874C102.407 25.7988 101.894 24.3322 100.918 23.3985L100.227 24.121ZM101.55 27.7636L102.453 39.289L103.45 39.211L102.547 27.6856L101.55 27.7636ZM102.453 39.2908C102.491 39.7563 102.387 40.0354 102.226 40.212L102.965 40.8857C103.369 40.4425 103.502 39.8557 103.45 39.2092L102.453 39.2908ZM102.231 40.2065C102.073 40.3754 101.806 40.5 101.338 40.5V41.5C101.982 41.5 102.554 41.3239 102.96 40.8912L102.231 40.2065ZM101.338 40.5H97.9336V41.5H101.338V40.5ZM97.9336 40.5C97.4603 40.5 97.1892 40.3821 97.0318 40.2286C96.8744 40.075 96.7499 39.8068 96.7381 39.3333L95.7384 39.3581C95.754 39.9875 95.9257 40.5465 96.3334 40.9443C96.7411 41.3421 97.3041 41.5 97.9336 41.5V40.5ZM96.7381 39.3334L96.5331 31.0209L95.5334 31.0455L95.7384 39.358L96.7381 39.3334ZM96.5332 31.0332C96.5332 30.8305 96.4906 30.5851 96.318 30.3869C96.1339 30.1756 95.8835 30.1094 95.6641 30.1094V31.1094C95.6789 31.1094 95.6698 31.1116 95.6468 31.1028C95.6209 31.0929 95.5898 31.0735 95.5639 31.0437C95.5392 31.0154 95.5313 30.9917 95.53 30.9872C95.5291 30.9842 95.5332 30.9972 95.5332 31.0332H96.5332ZM95.6641 30.1094C95.4306 30.1094 95.205 30.1993 95.0417 30.394C94.8961 30.5676 94.837 30.7809 94.8127 30.9692L95.8045 31.0972C95.81 31.0542 95.8171 31.0299 95.8209 31.0195C95.8247 31.0092 95.8229 31.0188 95.8079 31.0366C95.7913 31.0564 95.7654 31.078 95.7315 31.093C95.6988 31.1075 95.6733 31.1094 95.6641 31.1094V30.1094ZM94.8163 30.9458L93.4354 38.7251L94.42 38.8999L95.8009 31.1206L94.8163 30.9458ZM93.4352 38.7266C93.3141 39.4207 93.0473 39.84 92.6916 40.0793L93.2498 40.909C93.8967 40.4738 94.2679 39.772 94.4203 38.8984L93.4352 38.7266ZM92.6881 40.0817C92.3196 40.3341 91.685 40.5 90.7012 40.5V41.5C91.759 41.5 92.6374 41.3286 93.2533 40.9066L92.6881 40.0817ZM90.7012 40.5C89.7276 40.5 89.0969 40.3345 88.7279 40.0817L88.1627 40.9066C88.7781 41.3282 89.6513 41.5 90.7012 41.5V40.5ZM88.7279 40.0817C88.3782 39.842 88.1098 39.4197 87.9798 38.721L86.9967 38.904C87.1584 39.773 87.5281 40.4718 88.1627 40.9066L88.7279 40.0817ZM87.9807 38.726L86.6135 30.9467L85.6286 31.1198L86.9958 38.899L87.9807 38.726ZM86.6147 30.9536C86.5843 30.7651 86.5188 30.5559 86.3717 30.3869C86.2079 30.1989 85.9853 30.1094 85.752 30.1094V31.1094C85.7426 31.1094 85.7184 31.1075 85.6877 31.0941C85.6562 31.0803 85.6324 31.0608 85.6176 31.0437C85.6042 31.0284 85.6032 31.0211 85.6078 31.0326C85.6125 31.0444 85.6205 31.0695 85.6275 31.1128L86.6147 30.9536ZM85.752 30.1094C85.5337 30.1094 85.2789 30.1752 85.0954 30.394C84.9242 30.5982 84.8903 30.8483 84.8967 31.0493L85.8962 31.0171C85.8951 30.9809 85.8988 30.9685 85.8977 30.9727C85.8962 30.9786 85.888 31.0051 85.8616 31.0366C85.8338 31.0698 85.8001 31.0912 85.772 31.1021C85.7472 31.1117 85.7369 31.1094 85.752 31.1094V30.1094ZM84.8967 31.0201L84.6779 39.3326L85.6776 39.3589L85.8963 31.0464L84.8967 31.0201ZM84.6779 39.3333C84.6661 39.8068 84.5416 40.075 84.3842 40.2286C84.2268 40.3821 83.9558 40.5 83.4824 40.5V41.5C84.1119 41.5 84.6749 41.3421 85.0826 40.9443C85.4903 40.5465 85.662 39.9875 85.6776 39.3581L84.6779 39.3333ZM83.4824 40.5H80.0918V41.5H83.4824V40.5ZM105.043 40.5762L104.689 40.9298L104.695 40.9353L105.043 40.5762ZM105.029 23.2402L104.676 22.8866L104.67 22.8923L105.029 23.2402ZM111.223 23.2402L110.869 23.5938L110.875 23.5994L111.223 23.2402ZM111.223 40.5625L110.869 40.2089L110.864 40.2146L111.223 40.5625ZM106.287 40.5C105.836 40.5 105.562 40.383 105.391 40.2171L104.695 40.9353C105.107 41.3345 105.663 41.5 106.287 41.5V40.5ZM105.397 40.2226C105.226 40.0522 105.105 39.7774 105.105 39.3184H104.105C104.105 39.9531 104.276 40.5168 104.689 40.9297L105.397 40.2226ZM105.105 39.3184V24.4844H104.105V39.3184H105.105ZM105.105 24.4844C105.105 24.0331 105.222 23.7594 105.388 23.5881L104.67 22.8923C104.271 23.3044 104.105 23.8602 104.105 24.4844H105.105ZM105.383 23.5938C105.553 23.4234 105.828 23.3027 106.287 23.3027V22.3027C105.652 22.3027 105.089 22.4738 104.676 22.8867L105.383 23.5938ZM106.287 23.3027H109.979V22.3027H106.287V23.3027ZM109.979 23.3027C110.426 23.3027 110.697 23.4219 110.869 23.5938L111.576 22.8867C111.165 22.4753 110.607 22.3027 109.979 22.3027V23.3027ZM110.875 23.5994C111.039 23.7586 111.16 24.0243 111.16 24.4844H112.16C112.16 23.8507 111.99 23.287 111.571 22.8811L110.875 23.5994ZM111.16 24.4844V39.3184H112.16V24.4844H111.16ZM111.16 39.3184C111.16 39.7655 111.041 40.037 110.869 40.2089L111.576 40.9161C111.988 40.5046 112.16 39.9468 112.16 39.3184H111.16ZM110.864 40.2146C110.704 40.379 110.439 40.5 109.979 40.5V41.5C110.612 41.5 111.176 41.3294 111.582 40.9104L110.864 40.2146ZM109.979 40.5H106.287V41.5H109.979V40.5ZM114.203 40.5762L113.85 40.9298L113.855 40.9353L114.203 40.5762ZM113.916 24.6348L113.431 24.5135L113.916 24.6348ZM114.463 23.6094L114.098 23.2674L114.098 23.2678L114.463 23.6094ZM115.584 22.9941L115.705 23.4793L115.714 23.4769L115.584 22.9941ZM120.055 23.3906L119.801 23.8214L119.803 23.8229L120.055 23.3906ZM122.16 25.7422L122.586 25.4803L122.585 25.4787L122.16 25.7422ZM125.414 31.0332L124.988 31.2951L125 31.3148L125.014 31.3332L125.414 31.0332ZM125.824 30.8418H126.324V30.8342L126.324 30.8267L125.824 30.8418ZM125.633 24.5117L126.133 24.4966L126.133 24.4951L125.633 24.5117ZM126.029 23.2539L125.67 22.9058L125.67 22.906L126.029 23.2539ZM131.689 23.2402L131.336 23.5938L131.342 23.5994L131.689 23.2402ZM131.416 40.1934L131.057 39.8456L131.051 39.8518L131.416 40.1934ZM125.824 40.4121L125.57 40.8429L125.573 40.8444L125.824 40.4121ZM123.732 38.0605L123.307 38.3225L123.307 38.3241L123.732 38.0605ZM120.479 32.7695L120.904 32.5076L120.892 32.488L120.879 32.4695L120.479 32.7695ZM120.055 32.9609L119.555 32.9417L119.554 32.9594L119.555 32.9771L120.055 32.9609ZM120.26 39.291L119.76 39.3072L119.76 39.3077L120.26 39.291ZM119.85 40.5625L120.203 40.9161L120.209 40.9106L119.85 40.5625ZM115.447 40.5C114.996 40.5 114.722 40.383 114.551 40.2171L113.855 40.9353C114.267 41.3345 114.823 41.5 115.447 41.5V40.5ZM114.557 40.2226C114.386 40.0522 114.266 39.7774 114.266 39.3184H113.266C113.266 39.9531 113.437 40.5168 113.85 40.9297L114.557 40.2226ZM114.266 39.3184V26.166H113.266V39.3184H114.266ZM114.266 26.166C114.266 25.5689 114.314 25.103 114.401 24.756L113.431 24.5135C113.317 24.9686 113.266 25.5235 113.266 26.166H114.266ZM114.401 24.756C114.482 24.4316 114.626 24.1672 114.828 23.951L114.098 23.2678C113.771 23.6166 113.55 24.0358 113.431 24.5135L114.401 24.756ZM114.828 23.9513C115.022 23.744 115.304 23.5796 115.705 23.4792L115.463 22.5091C114.916 22.6457 114.451 22.8915 114.098 23.2674L114.828 23.9513ZM115.714 23.4769C116.13 23.3649 116.688 23.3027 117.402 23.3027V22.3027C116.64 22.3027 115.986 22.3681 115.454 22.5113L115.714 23.4769ZM117.402 23.3027C118.452 23.3027 119.239 23.4902 119.801 23.8214L120.308 22.9598C119.54 22.5072 118.558 22.3027 117.402 22.3027V23.3027ZM119.803 23.8229C120.372 24.153 121.021 24.8534 121.735 26.0057L122.585 25.4787C121.841 24.2794 121.087 23.4121 120.306 22.9583L119.803 23.8229ZM121.734 26.0041L124.988 31.2951L125.84 30.7713L122.586 25.4803L121.734 26.0041ZM125.014 31.3332C125.128 31.4853 125.34 31.6973 125.66 31.6973V30.6973C125.736 30.6973 125.79 30.724 125.814 30.7402C125.835 30.7539 125.833 30.7588 125.814 30.7332L125.014 31.3332ZM125.66 31.6973C125.784 31.6973 125.912 31.6618 126.025 31.5804C126.132 31.5027 126.198 31.4035 126.237 31.3179C126.31 31.1593 126.324 30.983 126.324 30.8418H125.324C125.324 30.8831 125.322 30.9085 125.32 30.9213C125.318 30.9356 125.318 30.9242 125.329 30.8989C125.341 30.8725 125.373 30.8178 125.439 30.7697C125.511 30.7179 125.591 30.6973 125.66 30.6973V31.6973ZM126.324 30.8267L126.133 24.4966L125.133 24.5268L125.324 30.8569L126.324 30.8267ZM126.133 24.4951C126.117 24.035 126.229 23.7658 126.388 23.6018L125.67 22.906C125.264 23.3253 125.112 23.8947 125.133 24.5284L126.133 24.4951ZM126.388 23.602C126.559 23.4255 126.832 23.3027 127.287 23.3027V22.3027C126.648 22.3027 126.083 22.4808 125.67 22.9058L126.388 23.602ZM127.287 23.3027H130.445V22.3027H127.287V23.3027ZM130.445 23.3027C130.892 23.3027 131.164 23.4219 131.336 23.5938L132.043 22.8867C131.632 22.4753 131.074 22.3027 130.445 22.3027V23.3027ZM131.342 23.5994C131.506 23.7586 131.627 24.0243 131.627 24.4844H132.627C132.627 23.8507 132.456 23.287 132.037 22.8811L131.342 23.5994ZM131.627 24.4844V37.6367H132.627V24.4844H131.627ZM131.627 37.6367C131.627 38.2338 131.578 38.6997 131.491 39.0467L132.462 39.2892C132.575 38.8341 132.627 38.2792 132.627 37.6367H131.627ZM131.491 39.0467C131.411 39.3671 131.266 39.6295 131.057 39.8456L131.775 40.5411C132.113 40.1921 132.341 39.7709 132.462 39.2892L131.491 39.0467ZM131.051 39.8518C130.865 40.0502 130.586 40.216 130.179 40.3258L130.439 41.2914C130.979 41.146 131.438 40.9016 131.781 40.5349L131.051 39.8518ZM130.179 40.3258C129.763 40.4378 129.204 40.5 128.49 40.5V41.5C129.253 41.5 129.907 41.4346 130.439 41.2914L130.179 40.3258ZM128.49 40.5C127.441 40.5 126.648 40.3128 126.075 39.9798L125.573 40.8444C126.349 41.2953 127.334 41.5 128.49 41.5V40.5ZM126.078 39.9813C125.518 39.6513 124.873 38.9505 124.157 37.797L123.307 38.3241C124.051 39.5222 124.8 40.3891 125.57 40.8429L126.078 39.9813ZM124.158 37.7986L120.904 32.5076L120.053 33.0315L123.307 38.3225L124.158 37.7986ZM120.879 32.4695C120.764 32.3174 120.553 32.1055 120.232 32.1055V33.1055C120.156 33.1055 120.102 33.0787 120.078 33.0625C120.058 33.0488 120.059 33.044 120.079 33.0695L120.879 32.4695ZM120.232 32.1055C120.109 32.1055 119.983 32.1409 119.872 32.2186C119.767 32.2927 119.7 32.3876 119.659 32.4707C119.581 32.6256 119.561 32.7996 119.555 32.9417L120.554 32.9802C120.556 32.9389 120.559 32.9132 120.562 32.8998C120.565 32.8851 120.565 32.8949 120.553 32.9179C120.541 32.9418 120.511 32.9923 120.447 33.0368C120.379 33.0849 120.301 33.1055 120.232 33.1055V32.1055ZM119.555 32.9771L119.76 39.3072L120.76 39.2748L120.554 32.9447L119.555 32.9771ZM119.76 39.3077C119.775 39.7623 119.661 40.0384 119.491 40.2144L120.209 40.9106C120.621 40.485 120.781 39.9134 120.759 39.2744L119.76 39.3077ZM119.496 40.2089C119.324 40.3809 119.053 40.5 118.605 40.5V41.5C119.234 41.5 119.792 41.3275 120.203 40.9161L119.496 40.2089ZM118.605 40.5H115.447V41.5H118.605V40.5ZM149.436 23.2402L149.082 23.5938L149.088 23.5994L149.436 23.2402ZM145.115 28.5996V28.0996H144.615V28.5996H145.115ZM138.484 40.5762L138.125 40.9241L138.131 40.9298L138.136 40.9353L138.484 40.5762ZM138.061 28.5996H138.561V28.0996H138.061V28.5996ZM148.191 23.3027C148.638 23.3027 148.91 23.4219 149.082 23.5938L149.789 22.8867C149.378 22.4753 148.82 22.3027 148.191 22.3027V23.3027ZM149.088 23.5994C149.252 23.7586 149.373 24.0243 149.373 24.4844H150.373C150.373 23.8507 150.202 23.287 149.783 22.8811L149.088 23.5994ZM149.373 24.4844V26.918H150.373V24.4844H149.373ZM149.373 26.918C149.373 27.3651 149.254 27.6366 149.082 27.8086L149.789 28.5157C150.201 28.1042 150.373 27.5464 150.373 26.918H149.373ZM149.082 27.8086C148.91 27.9805 148.638 28.0996 148.191 28.0996V29.0996C148.82 29.0996 149.378 28.9271 149.789 28.5157L149.082 27.8086ZM148.191 28.0996H145.115V29.0996H148.191V28.0996ZM144.615 28.5996V39.3184H145.615V28.5996H144.615ZM144.615 39.3184C144.615 39.7655 144.496 40.037 144.324 40.2089L145.031 40.9161C145.443 40.5046 145.615 39.9468 145.615 39.3184H144.615ZM144.324 40.2089C144.152 40.3809 143.881 40.5 143.434 40.5V41.5C144.062 41.5 144.62 41.3275 145.031 40.9161L144.324 40.2089ZM143.434 40.5H139.729V41.5H143.434V40.5ZM139.729 40.5C139.277 40.5 139.004 40.383 138.832 40.2171L138.136 40.9353C138.549 41.3345 139.104 41.5 139.729 41.5V40.5ZM138.843 40.2283C138.679 40.0585 138.561 39.7815 138.561 39.3184H137.561C137.561 39.949 137.725 40.5106 138.125 40.9241L138.843 40.2283ZM138.561 39.3184V28.5996H137.561V39.3184H138.561ZM138.061 28.0996H134.971V29.0996H138.061V28.0996ZM134.971 28.0996C134.524 28.0996 134.252 27.9805 134.08 27.8086L133.373 28.5157C133.784 28.9271 134.342 29.0996 134.971 29.0996V28.0996ZM134.08 27.8086C133.908 27.6366 133.789 27.3651 133.789 26.918H132.789C132.789 27.5464 132.962 28.1042 133.373 28.5157L134.08 27.8086ZM133.789 26.918V24.4844H132.789V26.918H133.789ZM133.789 24.4844C133.789 24.0373 133.908 23.7657 134.08 23.5938L133.373 22.8867C132.962 23.2981 132.789 23.8559 132.789 24.4844H133.789ZM134.08 23.5938C134.252 23.4219 134.524 23.3027 134.971 23.3027V22.3027C134.342 22.3027 133.784 22.4753 133.373 22.8867L134.08 23.5938ZM134.971 23.3027H148.191V22.3027H134.971V23.3027Z" fill="white" mask="url(#path-5-outside-1_50_236)"/>
<defs>
<linearGradient id="paint0_linear_50_236" x1="30" y1="2.00002" x2="228" y2="57" gradientUnits="userSpaceOnUse">
<stop stop-color="#FF3DA6"/>
<stop offset="1" stop-color="#3F47F4"/>
</linearGradient>
</defs>
</svg>
